# xmcd
#
# Track frame offsets:
#	150
#	12047
#	21257
#	31455
#	42785
#	53755
#	64387
#	79087
#	87787
#	102085
#	114880
#	128775
#	140905
#	150705
#	160965
#	173205
#	184090
#	197522
#	208335
#	217152
#	227410
#	238030
#	249537
#	261362
#	274775
#	288730
#	303675
#	318562
#	330677
#
# Disc length: 4628 seconds
#
# Revision: 1
# Processed by: cddbd v1.5PL3 Copyright (c) Steve Scherf et al.
# Submitted via: audiograbber 1.80
#
DISCID=ab12121d
DTITLE=ROSE MADDOX - The One Rose disc 1
DYEAR=1900
DGENRE=
TTITLE0=What Makes Me Hang Around 
TTITLE1=Bill Cline 
TTITLE2=Gambler's Love 
TTITLE3=Lies And Alibis 
TTITLE4=Custer's Last Stand 
TTITLE5=I Lost Today 
TTITLE6=Live And Let Live 
TTITLE7=My Little Baby 
TTITLE8=Philadelphia Lawyer (master) 
TTITLE9=Tramp On The Street 
TTITLE10=Gathering Flower's For The Masters Bouquet 
TTITLE11=I'm Happy Every Day I Live 
TTITLE12=Sally Let Your Bangs Hang Down 
TTITLE13=Whoa Sailor 
TTITLE14=On The Banks Of The Old Ponchartrain 
TTITLE15=Honky Tonkin' 
TTITLE16=At The First Fall Of Snow 
TTITLE17=Why Don't You Haul Off And Love Me 
TTITLE18=Chocolate Ice Cream Cone 
TTITLE19=Move It On Over 
TTITLE20=Shining Silver Gleaming Gold 
TTITLE21=Down, Down, Down 
TTITLE22=Please Help Me, I'm Falling 
TTITLE23=Johnny's Last Kiss 
TTITLE24=Philadelphia Lawyer (alt. take 5) 
TTITLE25=Wait A Little Longer Please Jesus 
TTITLE26=An Empty Mansion 
TTITLE27=The Great Speckled Bird 
TTITLE28=This World Is Not My Home 
EXTD=
EXTT0=
EXTT1=
EXTT2=
EXTT3=
EXTT4=
EXTT5=
EXTT6=
EXTT7=
EXTT8=
EXTT9=
EXTT10=
EXTT11=
EXTT12=
EXTT13=
EXTT14=
EXTT15=
EXTT16=
EXTT17=
EXTT18=
EXTT19=
EXTT20=
EXTT21=
EXTT22=
EXTT23=
EXTT24=
EXTT25=
EXTT26=
EXTT27=
EXTT28=
PLAYORDER=
